name ./resultDataOpenSim/trcMotMarkerGrf/sub09/grf-12-03.mot
datacolumns 19
datarows 30
range 1.39600000 1.51200000
endheader

                time	     ground_force_vx	     ground_force_vy	     ground_force_vz	     ground_force_px	     ground_force_py	     ground_force_pz	   l_ground_force_vx	   l_ground_force_vy	   l_ground_force_vz	   l_ground_force_px	   l_ground_force_py	   l_ground_force_pz	     ground_torque_x	     ground_torque_y	     ground_torque_z	   l_ground_torque_x	   l_ground_torque_y	   l_ground_torque_z	
          1.39600000	        -22.24873680	        420.94919350	         -7.74126295	          1.09332989	          0.00000000	          0.00064068	          0.00000000	          0.00000000	          0.00000000	          0.00000000	          0.00000000	          0.00000000	          0.00000000	         -0.32348152	          0.00000000	          0.00000000	          0.00000000	          0.00000000	
          1.40000000	        -24.31121027	        420.04948415	         -5.54762223	          1.09385800	          0.00000000	          0.00093295	          0.00000000	          0.00000000	          0.00000000	          0.00000000	          0.00000000	          0.00000000	          0.00000000	          0.04207631	          0.00000000	          0.00000000	          0.00000000	          0.00000000	
          1.40400000	        -27.71691096	        419.44572153	         -3.94856284	          1.09462821	          0.00000000	          0.00119113	          0.00000000	          0.00000000	          0.00000000	          0.00000000	          0.00000000	          0.00000000	          0.00000000	          0.34257405	          0.00000000	          0.00000000	          0.00000000	          0.00000000	
          1.40800000	        -31.21112141	        419.03636094	         -3.33857529	          1.09543845	          0.00000000	          0.00146124	          0.00000000	          0.00000000	          0.00000000	          0.00000000	          0.00000000	          0.00000000	          0.00000000	          0.53811300	          0.00000000	          0.00000000	          0.00000000	          0.00000000	
          1.41200000	        -33.55117483	        418.74648362	         -3.91656173	          1.09606073	          0.00000000	          0.00178037	          0.00000000	          0.00000000	          0.00000000	          0.00000000	          0.00000000	          0.00000000	          0.00000000	          0.60803688	          0.00000000	          0.00000000	          0.00000000	          0.00000000	
          1.41600000	        -33.85707816	        418.56299918	         -5.65290456	          1.09633798	          0.00000000	          0.00217102	          0.00000000	          0.00000000	          0.00000000	          0.00000000	          0.00000000	          0.00000000	          0.00000000	          0.55547393	          0.00000000	          0.00000000	          0.00000000	          0.00000000	
          1.42000000	        -31.82537495	        418.53369084	         -8.30436359	          1.09623275	          0.00000000	          0.00263163	          0.00000000	          0.00000000	          0.00000000	          0.00000000	          0.00000000	          0.00000000	          0.00000000	          0.40677021	          0.00000000	          0.00000000	          0.00000000	          0.00000000	
          1.42400000	        -27.75880163	        418.74301908	        -11.46663886	          1.09581023	          0.00000000	          0.00313925	          0.00000000	          0.00000000	          0.00000000	          0.00000000	          0.00000000	          0.00000000	          0.00000000	          0.20526256	          0.00000000	          0.00000000	          0.00000000	          0.00000000	
          1.42800000	        -22.44024737	        419.28943622	        -14.66984208	          1.09519407	          0.00000000	          0.00365332	          0.00000000	          0.00000000	          0.00000000	          0.00000000	          0.00000000	          0.00000000	          0.00000000	          0.00140240	          0.00000000	          0.00000000	          0.00000000	          0.00000000	
          1.43200000	        -16.90179632	        420.27912232	        -17.47951399	          1.09455514	          0.00000000	          0.00413572	          0.00000000	          0.00000000	          0.00000000	          0.00000000	          0.00000000	          0.00000000	          0.00000000	         -0.15727896	          0.00000000	          0.00000000	          0.00000000	          0.00000000	
          1.43600000	        -12.13917213	        421.82857654	        -19.55694166	          1.09404519	          0.00000000	          0.00455101	          0.00000000	          0.00000000	          0.00000000	          0.00000000	          0.00000000	          0.00000000	          0.00000000	         -0.23347164	          0.00000000	          0.00000000	          0.00000000	          0.00000000	
          1.44000000	         -8.84572920	        424.04996932	        -20.68599888	          1.09375415	          0.00000000	          0.00487113	          0.00000000	          0.00000000	          0.00000000	          0.00000000	          0.00000000	          0.00000000	          0.00000000	         -0.20380834	          0.00000000	          0.00000000	          0.00000000	          0.00000000	
          1.44400000	         -7.25245498	        427.01579932	        -20.79006007	          1.09369838	          0.00000000	          0.00508087	          0.00000000	          0.00000000	          0.00000000	          0.00000000	          0.00000000	          0.00000000	          0.00000000	         -0.05999097	          0.00000000	          0.00000000	          0.00000000	          0.00000000	
          1.44800000	         -7.10621651	        430.73262026	        -19.93785501	          1.09383033	          0.00000000	          0.00518084	          0.00000000	          0.00000000	          0.00000000	          0.00000000	          0.00000000	          0.00000000	          0.00000000	          0.19127801	          0.00000000	          0.00000000	          0.00000000	          0.00000000	
          1.45200000	         -7.76098576	        435.14346020	        -18.33090615	          1.09406205	          0.00000000	          0.00518829	          0.00000000	          0.00000000	          0.00000000	          0.00000000	          0.00000000	          0.00000000	          0.00000000	          0.52909445	          0.00000000	          0.00000000	          0.00000000	          0.00000000	
          1.45600000	         -8.35332271	        440.15050493	        -16.27226322	          1.09427423	          0.00000000	          0.00513159	          0.00000000	          0.00000000	          0.00000000	          0.00000000	          0.00000000	          0.00000000	          0.00000000	          0.92061154	          0.00000000	          0.00000000	          0.00000000	          0.00000000	
          1.46000000	         -8.03727369	        445.63347018	        -14.12008178	          1.09435426	          0.00000000	          0.00503878	          0.00000000	          0.00000000	          0.00000000	          0.00000000	          0.00000000	          0.00000000	          0.00000000	          1.32577084	          0.00000000	          0.00000000	          0.00000000	          0.00000000	
          1.46400000	         -6.22404392	        451.46060548	        -12.22811890	          1.09424975	          0.00000000	          0.00493111	          0.00000000	          0.00000000	          0.00000000	          0.00000000	          0.00000000	          0.00000000	          0.00000000	          1.70450801	          0.00000000	          0.00000000	          0.00000000	          0.00000000	
          1.46800000	         -2.74250674	        457.51105393	        -10.87847329	          1.09397416	          0.00000000	          0.00482359	          0.00000000	          0.00000000	          0.00000000	          0.00000000	          0.00000000	          0.00000000	          0.00000000	          2.02483438	          0.00000000	          0.00000000	          0.00000000	          0.00000000	
          1.47200000	          2.13257351	        463.70486413	        -10.22464436	          1.09359204	          0.00000000	          0.00472369	          0.00000000	          0.00000000	          0.00000000	          0.00000000	          0.00000000	          0.00000000	          0.00000000	          2.26922674	          0.00000000	          0.00000000	          0.00000000	          0.00000000	
          1.47600000	          7.77351797	        470.02718832	        -10.26653418	          1.09319965	          0.00000000	          0.00463021	          0.00000000	          0.00000000	          0.00000000	          0.00000000	          0.00000000	          0.00000000	          0.00000000	          2.43721308	          0.00000000	          0.00000000	          0.00000000	          0.00000000	
          1.48000000	         13.37682592	        476.53797592	        -10.86832125	          1.09290424	          0.00000000	          0.00453576	          0.00000000	          0.00000000	          0.00000000	          0.00000000	          0.00000000	          0.00000000	          0.00000000	          2.54370155	          0.00000000	          0.00000000	          0.00000000	          0.00000000	
          1.48400000	         18.18596622	        483.35366067	        -11.80329582	          1.09279740	          0.00000000	          0.00443199	          0.00000000	          0.00000000	          0.00000000	          0.00000000	          0.00000000	          0.00000000	          0.00000000	          2.61437025	          0.00000000	          0.00000000	          0.00000000	          0.00000000	
          1.48800000	         21.70375527	        490.60270077	        -12.79631874	          1.09290068	          0.00000000	          0.00431204	          0.00000000	          0.00000000	          0.00000000	          0.00000000	          0.00000000	          0.00000000	          0.00000000	          2.68014569	          0.00000000	          0.00000000	          0.00000000	          0.00000000	
          1.49200000	         23.82145465	        498.37295870	        -13.56178504	          1.09316761	          0.00000000	          0.00417182	          0.00000000	          0.00000000	          0.00000000	          0.00000000	          0.00000000	          0.00000000	          0.00000000	          2.77212063	          0.00000000	          0.00000000	          0.00000000	          0.00000000	
          1.49600000	         24.82426257	        506.67062621	        -13.85339834	          1.09351890	          0.00000000	          0.00400879	          0.00000000	          0.00000000	          0.00000000	          0.00000000	          0.00000000	          0.00000000	          0.00000000	          2.91700270	          0.00000000	          0.00000000	          0.00000000	          0.00000000	
          1.50000000	         25.29588336	        515.42100621	        -13.51919242	          1.09386502	          0.00000000	          0.00382772	          0.00000000	          0.00000000	          0.00000000	          0.00000000	          0.00000000	          0.00000000	          0.00000000	          3.13258293	          0.00000000	          0.00000000	          0.00000000	          0.00000000	
          1.50400000	         25.96343857	        524.52831816	        -12.53482962	          1.09411876	          0.00000000	          0.00363805	          0.00000000	          0.00000000	          0.00000000	          0.00000000	          0.00000000	          0.00000000	          0.00000000	          3.42335976	          0.00000000	          0.00000000	          0.00000000	          0.00000000	
          1.50800000	         27.51023796	        533.93867123	        -11.01252159	          1.09420478	          0.00000000	          0.00345070	          0.00000000	          0.00000000	          0.00000000	          0.00000000	          0.00000000	          0.00000000	          0.00000000	          3.77774502	          0.00000000	          0.00000000	          0.00000000	          0.00000000	
          1.51200000	         30.39410130	        543.63551880	         -9.19401152	          1.09407942	          0.00000000	          0.00327874	          0.00000000	          0.00000000	          0.00000000	          0.00000000	          0.00000000	          0.00000000	          0.00000000	          4.16878981	          0.00000000	          0.00000000	          0.00000000	          0.00000000	
